# xmcd CD database file
#
# Track frame offsets:
#	150
#	10517
#	19232
#	30219
#	43984
#	55931
#	67393
#	77468
#	90897
#	103160
#	110693
#	122338
#	130895
#	139272
#	147671
#	157446
#	169001
#	181141
#	187816
#	198566
#	208101
#	221728
#	230723
#	241862
#	253843
#
# Disc length: 3525 seconds
#
# Revision: 0
# Processed by: cddbd v1.5.1PL2 Copyright (c) Steve Scherf et al.
# Submitted via: CDex 1.40Beta9
#
DISCID=6c0dc319
DTITLE=Adé Gagnon - Neige sur la bible de mon père
DYEAR=2005
DGENRE=Country
TTITLE0=Neige sur la bible de mon père
TTITLE1=Cheveux blancs d'une mère
TTITLE2=La prison de Folsom
TTITLE3=Ma complainte
TTITLE4=Allo ma prairie
TTITLE5=Laisse-moi libre ce soir
TTITLE6=J'ai mon soleil
TTITLE7=Le hobot chantant
TTITLE8=Hé pis ay hé
TTITLE9=Jours merveilleux
TTITLE10=Maintenant j'ai vingt ans
TTITLE11=Quand nos coeurs seront unis
TTITLE12=Mon pays, ma province, ma Gaspésie
TTITLE13=Ma blondinette
TTITLE14=Pense à moi chérie
TTITLE15=Belle Gaspésis
TTITLE16=Au revoir je rentre chez moi
TTITLE17=Dans le bon vieux temps
TTITLE18=Les hautes montagnes
TTITLE19=Sous le ciel de mon village
TTITLE20=Ruby
TTITLE21=Café du coin
TTITLE22=Dans les montagnes
TTITLE23=Quand le soleil dit bonjour aux montagnes
TTITLE24=Je ne suis pas un fou
EXTD=YEAR: 2005 ID3G: 2
EXTT0=
EXTT1=
EXTT2=
EXTT3=
EXTT4=
EXTT5=
EXTT6=
EXTT7=
EXTT8=
EXTT9=
EXTT10=
EXTT11=
EXTT12=
EXTT13=
EXTT14=
EXTT15=
EXTT16=
EXTT17=
EXTT18=
EXTT19=
EXTT20=
EXTT21=
EXTT22=
EXTT23=
EXTT24=
PLAYORDER=
